<?xml version="1.0" encoding="us-ascii" standalone="no"?><svg xmlns="http://www.w3.org/2000/svg" xmlns:xlink="http://www.w3.org/1999/xlink" contentStyleType="text/css" height="1132px" preserveAspectRatio="none" style="width:2110px;height:1132px;background:#FFFFFF;" version="1.1" viewBox="0 0 2110 1132" width="2110px" zoomAndPan="magnify"><defs/><g><text fill="#222222" font-family="sans-serif" font-size="14" font-weight="bold" lengthAdjust="spacing" textLength="160" x="972.25" y="27.9951">IR&#36716;&#25442;&#20026;DAG&#26102;&#24207;&#20998;&#26512;&#22270;</text><rect fill="#DDDDDD" height="1082.875" style="stroke:#181818;stroke-width:0.5;" width="1494" x="143.5" y="43.2969"/><text fill="#222222" font-family="sans-serif" font-size="14" font-weight="bold" lengthAdjust="spacing" textLength="31" x="875" y="56.292">llvm</text><rect fill="#DDDDDD" height="1082.875" style="stroke:#181818;stroke-width:0.5;" width="465" x="1639.5" y="43.2969"/><text fill="#222222" font-family="sans-serif" font-size="14" font-weight="bold" lengthAdjust="spacing" textLength="67" x="1838.5" y="56.292">cpu0ISel</text><line style="stroke:#008000;stroke-width:0.5;stroke-dasharray:5.0,5.0;" x1="21" x2="21" y1="94.8906" y2="1074.875"/><line style="stroke:#008000;stroke-width:0.5;stroke-dasharray:5.0,5.0;" x1="205.5" x2="205.5" y1="94.8906" y2="1074.875"/><line style="stroke:#008000;stroke-width:0.5;stroke-dasharray:5.0,5.0;" x1="391" x2="391" y1="94.8906" y2="1074.875"/><line style="stroke:#008000;stroke-width:0.5;stroke-dasharray:5.0,5.0;" x1="591" x2="591" y1="94.8906" y2="1074.875"/><line style="stroke:#008000;stroke-width:0.5;stroke-dasharray:5.0,5.0;" x1="780.5" x2="780.5" y1="94.8906" y2="1074.875"/><line style="stroke:#008000;stroke-width:0.5;stroke-dasharray:5.0,5.0;" x1="1140.5" x2="1140.5" y1="94.8906" y2="1074.875"/><line style="stroke:#008000;stroke-width:0.5;stroke-dasharray:5.0,5.0;" x1="1246.5" x2="1246.5" y1="94.8906" y2="1074.875"/><line style="stroke:#008000;stroke-width:0.5;stroke-dasharray:5.0,5.0;" x1="1554.5" x2="1554.5" y1="94.8906" y2="1074.875"/><line style="stroke:#008000;stroke-width:0.5;stroke-dasharray:5.0,5.0;" x1="1720.5" x2="1720.5" y1="94.8906" y2="1074.875"/><line style="stroke:#008000;stroke-width:0.5;stroke-dasharray:5.0,5.0;" x1="1871.5" x2="1871.5" y1="94.8906" y2="1074.875"/><line style="stroke:#008000;stroke-width:0.5;stroke-dasharray:5.0,5.0;" x1="2022.5" x2="2022.5" y1="94.8906" y2="1074.875"/><text fill="#222222" font-family="sans-serif" font-size="14" lengthAdjust="spacing" textLength="14" x="11" y="91.5889">llc</text><ellipse cx="21" cy="62.5938" fill="#E3F2FD" rx="12" ry="12" style="stroke:#424242;stroke-width:0.5;"/><line style="stroke:#424242;stroke-width:0.5;" x1="9" x2="33" y1="76.5938" y2="76.5938"/><text fill="#222222" font-family="sans-serif" font-size="14" lengthAdjust="spacing" textLength="14" x="11" y="1086.8701">llc</text><ellipse cx="21" cy="1106.1719" fill="#E3F2FD" rx="12" ry="12" style="stroke:#424242;stroke-width:0.5;"/><line style="stroke:#424242;stroke-width:0.5;" x1="9" x2="33" y1="1120.1719" y2="1120.1719"/><rect fill="#1565C0" height="30.2969" rx="2.5" ry="2.5" style="stroke:#1565C0;stroke-width:0.0;" width="117" x="147.5" y="63.5938"/><text fill="#FFFFFF" font-family="sans-serif" font-size="14" lengthAdjust="spacing" textLength="103" x="154.5" y="83.5889">TargetMachine</text><rect fill="#1565C0" height="30.2969" rx="2.5" ry="2.5" style="stroke:#1565C0;stroke-width:0.0;" width="117" x="147.5" y="1073.875"/><text fill="#FFFFFF" font-family="sans-serif" font-size="14" lengthAdjust="spacing" textLength="103" x="154.5" y="1093.8701">TargetMachine</text><rect fill="#1565C0" height="30.2969" rx="2.5" ry="2.5" style="stroke:#1565C0;stroke-width:0.0;" width="152" x="315" y="63.5938"/><text fill="#FFFFFF" font-family="sans-serif" font-size="14" lengthAdjust="spacing" textLength="138" x="322" y="83.5889">LLVMTargetMachine</text><rect fill="#1565C0" height="30.2969" rx="2.5" ry="2.5" style="stroke:#1565C0;stroke-width:0.0;" width="152" x="315" y="1073.875"/><text fill="#FFFFFF" font-family="sans-serif" font-size="14" lengthAdjust="spacing" textLength="138" x="322" y="1093.8701">LLVMTargetMachine</text><rect fill="#1565C0" height="30.2969" rx="2.5" ry="2.5" style="stroke:#1565C0;stroke-width:0.0;" width="136" x="523" y="63.5938"/><text fill="#FFFFFF" font-family="sans-serif" font-size="14" lengthAdjust="spacing" textLength="122" x="530" y="83.5889">TargetPassConfig</text><rect fill="#1565C0" height="30.2969" rx="2.5" ry="2.5" style="stroke:#1565C0;stroke-width:0.0;" width="136" x="523" y="1073.875"/><text fill="#FFFFFF" font-family="sans-serif" font-size="14" lengthAdjust="spacing" textLength="122" x="530" y="1093.8701">TargetPassConfig</text><rect fill="#1565C0" height="30.2969" rx="2.5" ry="2.5" style="stroke:#1565C0;stroke-width:0.0;" width="133" x="714.5" y="63.5938"/><text fill="#FFFFFF" font-family="sans-serif" font-size="14" lengthAdjust="spacing" textLength="119" x="721.5" y="83.5889">SelectionDAGISel</text><rect fill="#1565C0" height="30.2969" rx="2.5" ry="2.5" style="stroke:#1565C0;stroke-width:0.0;" width="133" x="714.5" y="1073.875"/><text fill="#FFFFFF" font-family="sans-serif" font-size="14" lengthAdjust="spacing" textLength="119" x="721.5" y="1093.8701">SelectionDAGISel</text><rect fill="#1565C0" height="30.2969" rx="2.5" ry="2.5" style="stroke:#1565C0;stroke-width:0.0;" width="83" x="1099.5" y="63.5938"/><text fill="#FFFFFF" font-family="sans-serif" font-size="14" lengthAdjust="spacing" textLength="69" x="1106.5" y="83.5889">LegacyPM</text><rect fill="#1565C0" height="30.2969" rx="2.5" ry="2.5" style="stroke:#1565C0;stroke-width:0.0;" width="83" x="1099.5" y="1073.875"/><text fill="#FFFFFF" font-family="sans-serif" font-size="14" lengthAdjust="spacing" textLength="69" x="1106.5" y="1093.8701">LegacyPM</text><rect fill="#1565C0" height="30.2969" rx="2.5" ry="2.5" style="stroke:#1565C0;stroke-width:0.0;" width="109" x="1192.5" y="63.5938"/><text fill="#FFFFFF" font-family="sans-serif" font-size="14" lengthAdjust="spacing" textLength="95" x="1199.5" y="83.5889">SelectionDAG</text><rect fill="#1565C0" height="30.2969" rx="2.5" ry="2.5" style="stroke:#1565C0;stroke-width:0.0;" width="109" x="1192.5" y="1073.875"/><text fill="#FFFFFF" font-family="sans-serif" font-size="14" lengthAdjust="spacing" textLength="95" x="1199.5" y="1093.8701">SelectionDAG</text><rect fill="#1565C0" height="30.2969" rx="2.5" ry="2.5" style="stroke:#1565C0;stroke-width:0.0;" width="157" x="1476.5" y="63.5938"/><text fill="#FFFFFF" font-family="sans-serif" font-size="14" lengthAdjust="spacing" textLength="143" x="1483.5" y="83.5889">SelectionDAGBuilder</text><rect fill="#1565C0" height="30.2969" rx="2.5" ry="2.5" style="stroke:#1565C0;stroke-width:0.0;" width="157" x="1476.5" y="1073.875"/><text fill="#FFFFFF" font-family="sans-serif" font-size="14" lengthAdjust="spacing" textLength="143" x="1483.5" y="1093.8701">SelectionDAGBuilder</text><rect fill="#1565C0" height="30.2969" rx="2.5" ry="2.5" style="stroke:#1565C0;stroke-width:0.0;" width="154" x="1643.5" y="63.5938"/><text fill="#FFFFFF" font-family="sans-serif" font-size="14" lengthAdjust="spacing" textLength="140" x="1650.5" y="83.5889">Cpu0TargetMachine</text><rect fill="#1565C0" height="30.2969" rx="2.5" ry="2.5" style="stroke:#1565C0;stroke-width:0.0;" width="154" x="1643.5" y="1073.875"/><text fill="#FFFFFF" font-family="sans-serif" font-size="14" lengthAdjust="spacing" textLength="140" x="1650.5" y="1093.8701">Cpu0TargetMachine</text><rect fill="#1565C0" height="30.2969" rx="2.5" ry="2.5" style="stroke:#1565C0;stroke-width:0.0;" width="128" x="1807.5" y="63.5938"/><text fill="#FFFFFF" font-family="sans-serif" font-size="14" lengthAdjust="spacing" textLength="114" x="1814.5" y="83.5889">Cpu0PassConfig</text><rect fill="#1565C0" height="30.2969" rx="2.5" ry="2.5" style="stroke:#1565C0;stroke-width:0.0;" width="128" x="1807.5" y="1073.875"/><text fill="#FFFFFF" font-family="sans-serif" font-size="14" lengthAdjust="spacing" textLength="114" x="1814.5" y="1093.8701">Cpu0PassConfig</text><rect fill="#1565C0" height="30.2969" rx="2.5" ry="2.5" style="stroke:#1565C0;stroke-width:0.0;" width="155" x="1945.5" y="63.5938"/><text fill="#FFFFFF" font-family="sans-serif" font-size="14" lengthAdjust="spacing" textLength="141" x="1952.5" y="83.5889">Cpu0DAGToDAGISel</text><rect fill="#1565C0" height="30.2969" rx="2.5" ry="2.5" style="stroke:#1565C0;stroke-width:0.0;" width="155" x="1945.5" y="1073.875"/><text fill="#FFFFFF" font-family="sans-serif" font-size="14" lengthAdjust="spacing" textLength="141" x="1952.5" y="1093.8701">Cpu0DAGToDAGISel</text><polygon fill="#1565C0" points="1708.5,139.4844,1718.5,143.4844,1708.5,147.4844,1712.5,143.4844" style="stroke:#1565C0;stroke-width:1.0;"/><line style="stroke:#1565C0;stroke-width:1.0;" x1="21" x2="1714.5" y1="143.4844" y2="143.4844"/><text fill="#222222" font-family="sans-serif" font-size="14" font-weight="bold" lengthAdjust="spacing" textLength="10" x="805.75" y="130.0342">1</text><text fill="#222222" font-family="sans-serif" font-size="14" lengthAdjust="spacing" textLength="116" x="819.75" y="121.8857">getTargetTriple()</text><text fill="#222222" font-family="sans-serif" font-size="14" lengthAdjust="spacing" textLength="98" x="828.75" y="138.1826">(LLParser.cpp)</text><polygon fill="#1565C0" points="194,169.7813,204,173.7813,194,177.7813,198,173.7813" style="stroke:#1565C0;stroke-width:1.0;"/><line style="stroke:#1565C0;stroke-width:1.0;" x1="21" x2="200" y1="173.7813" y2="173.7813"/><text fill="#222222" font-family="sans-serif" font-size="14" font-weight="bold" lengthAdjust="spacing" textLength="10" x="33" y="168.4795">2</text><text fill="#222222" font-family="sans-serif" font-size="14" lengthAdjust="spacing" textLength="147" x="47" y="168.4795">addPassesToEmitFile</text><polygon fill="#1565C0" points="379,216.375,389,220.375,379,224.375,383,220.375" style="stroke:#1565C0;stroke-width:1.0;"/><line style="stroke:#1565C0;stroke-width:1.0;" x1="206" x2="385" y1="220.375" y2="220.375"/><text fill="#222222" font-family="sans-serif" font-size="14" font-weight="bold" lengthAdjust="spacing" textLength="10" x="218" y="206.9248">3</text><text fill="#222222" font-family="sans-serif" font-size="14" lengthAdjust="spacing" textLength="147" x="232" y="198.7764">addPassesToEmitFile</text><text fill="#222222" font-family="sans-serif" font-size="14" lengthAdjust="spacing" textLength="54" x="278.5" y="215.0732">(llc.cpp)</text><polygon fill="#1565C0" points="579,262.9688,589,266.9688,579,270.9688,583,266.9688" style="stroke:#1565C0;stroke-width:1.0;"/><line style="stroke:#1565C0;stroke-width:1.0;" x1="391" x2="585" y1="266.9688" y2="266.9688"/><text fill="#222222" font-family="sans-serif" font-size="14" font-weight="bold" lengthAdjust="spacing" textLength="10" x="403" y="253.5186">4</text><text fill="#222222" font-family="sans-serif" font-size="14" lengthAdjust="spacing" textLength="100" x="448" y="245.3701">addISelPasses</text><text fill="#222222" font-family="sans-serif" font-size="14" lengthAdjust="spacing" textLength="162" x="417" y="261.667">(TargetPassConfig.cpp)</text><line style="stroke:#1565C0;stroke-width:1.0;" x1="591" x2="633" y1="313.5625" y2="313.5625"/><line style="stroke:#1565C0;stroke-width:1.0;" x1="633" x2="633" y1="313.5625" y2="326.5625"/><line style="stroke:#1565C0;stroke-width:1.0;" x1="592" x2="633" y1="326.5625" y2="326.5625"/><polygon fill="#1565C0" points="602,322.5625,592,326.5625,602,330.5625,598,326.5625" style="stroke:#1565C0;stroke-width:1.0;"/><text fill="#222222" font-family="sans-serif" font-size="14" font-weight="bold" lengthAdjust="spacing" textLength="10" x="598" y="300.1123">5</text><text fill="#222222" font-family="sans-serif" font-size="14" lengthAdjust="spacing" textLength="133" x="626.5" y="291.9639">addCoreISelPasses</text><text fill="#222222" font-family="sans-serif" font-size="14" lengthAdjust="spacing" textLength="162" x="612" y="308.2607">(TargetPassConfig.cpp)</text><polygon fill="#1565C0" points="1859.5,369.1563,1869.5,373.1563,1859.5,377.1563,1863.5,373.1563" style="stroke:#1565C0;stroke-width:1.0;"/><line style="stroke:#1565C0;stroke-width:1.0;" x1="591" x2="1865.5" y1="373.1563" y2="373.1563"/><text fill="#222222" font-family="sans-serif" font-size="14" font-weight="bold" lengthAdjust="spacing" textLength="10" x="1134.25" y="359.7061">6</text><text fill="#222222" font-family="sans-serif" font-size="14" lengthAdjust="spacing" textLength="118" x="1179.25" y="351.5576">addInstSelector()</text><text fill="#222222" font-family="sans-serif" font-size="14" lengthAdjust="spacing" textLength="180" x="1148.25" y="367.8545">(Cpu0TargetMachine.cpp)</text><polygon fill="#FF0000" points="2011,415.75,2021,419.75,2011,423.75,2015,419.75" style="stroke:#FF0000;stroke-width:1.0;"/><line style="stroke:#FF0000;stroke-width:1.0;" x1="1871.5" x2="2017" y1="419.75" y2="419.75"/><text fill="#222222" font-family="sans-serif" font-size="14" font-weight="bold" lengthAdjust="spacing" textLength="10" x="1887.75" y="406.2998">7</text><text fill="#FF0000" font-family="sans-serif" font-size="14" lengthAdjust="spacing" textLength="65" x="1921.75" y="398.1514">&#21019;&#24314;Cpu0</text><text fill="#FF0000" font-family="sans-serif" font-size="14" lengthAdjust="spacing" textLength="105" x="1901.75" y="414.4482">lowering&#30340;Pass</text><polygon fill="#1565C0" points="792,462.3438,782,466.3438,792,470.3438,788,466.3438" style="stroke:#1565C0;stroke-width:1.0;"/><line style="stroke:#1565C0;stroke-width:1.0;" x1="786" x2="2022" y1="466.3438" y2="466.3438"/><text fill="#222222" font-family="sans-serif" font-size="14" font-weight="bold" lengthAdjust="spacing" textLength="10" x="1313" y="452.8936">8</text><text fill="#FF0000" font-family="sans-serif" font-size="14" lengthAdjust="spacing" textLength="84" x="1367" y="444.7451">&#23376;&#31867;&#26500;&#24314;&#29238;&#31867;</text><text fill="#FF0000" font-family="sans-serif" font-size="14" lengthAdjust="spacing" textLength="164" x="1327" y="461.042">(Cpu0ISelDAGToDAG.h)</text><polygon fill="#FF0000" points="1235,508.9375,1245,512.9375,1235,516.9375,1239,512.9375" style="stroke:#FF0000;stroke-width:1.0;"/><line style="stroke:#FF0000;stroke-width:1.0;" x1="781" x2="1241" y1="512.9375" y2="512.9375"/><text fill="#222222" font-family="sans-serif" font-size="14" font-weight="bold" lengthAdjust="spacing" textLength="10" x="939.5" y="499.4873">9</text><text fill="#FF0000" font-family="sans-serif" font-size="14" lengthAdjust="spacing" textLength="123" x="959.5" y="491.3389">&#26500;&#24314;SelectoinDAG</text><text fill="#FF0000" font-family="sans-serif" font-size="14" lengthAdjust="spacing" textLength="135" x="953.5" y="507.6357">(SelectionDAG.cpp)</text><line style="stroke:#1565C0;stroke-width:1.0;" x1="781" x2="823" y1="543.2344" y2="543.2344"/><line style="stroke:#1565C0;stroke-width:1.0;" x1="823" x2="823" y1="543.2344" y2="556.2344"/><line style="stroke:#1565C0;stroke-width:1.0;" x1="782" x2="823" y1="556.2344" y2="556.2344"/><polygon fill="#1565C0" points="792,552.2344,782,556.2344,792,560.2344,788,556.2344" style="stroke:#1565C0;stroke-width:1.0;"/><text fill="#222222" font-family="sans-serif" font-size="14" font-weight="bold" lengthAdjust="spacing" textLength="20" x="788" y="537.9326">10</text><text fill="#222222" font-family="sans-serif" font-size="14" lengthAdjust="spacing" textLength="184" x="812" y="537.9326">initializeGCModuleInfoPass</text><line style="stroke:#1565C0;stroke-width:1.0;" x1="781" x2="823" y1="586.5313" y2="586.5313"/><line style="stroke:#1565C0;stroke-width:1.0;" x1="823" x2="823" y1="586.5313" y2="599.5313"/><line style="stroke:#1565C0;stroke-width:1.0;" x1="782" x2="823" y1="599.5313" y2="599.5313"/><polygon fill="#1565C0" points="792,595.5313,782,599.5313,792,603.5313,788,599.5313" style="stroke:#1565C0;stroke-width:1.0;"/><text fill="#222222" font-family="sans-serif" font-size="14" font-weight="bold" lengthAdjust="spacing" textLength="20" x="788" y="581.2295">11</text><text fill="#222222" font-family="sans-serif" font-size="14" lengthAdjust="spacing" textLength="322" x="812" y="581.2295">initializeBranchProbabilityInfoWrapperPassPass</text><line style="stroke:#1565C0;stroke-width:1.0;" x1="781" x2="823" y1="629.8281" y2="629.8281"/><line style="stroke:#1565C0;stroke-width:1.0;" x1="823" x2="823" y1="629.8281" y2="642.8281"/><line style="stroke:#1565C0;stroke-width:1.0;" x1="782" x2="823" y1="642.8281" y2="642.8281"/><polygon fill="#1565C0" points="792,638.8281,782,642.8281,792,646.8281,788,642.8281" style="stroke:#1565C0;stroke-width:1.0;"/><text fill="#222222" font-family="sans-serif" font-size="14" font-weight="bold" lengthAdjust="spacing" textLength="20" x="788" y="624.5264">12</text><text fill="#222222" font-family="sans-serif" font-size="14" lengthAdjust="spacing" textLength="248" x="812" y="624.5264">initializeAAResultsWrapperPassPass</text><line style="stroke:#1565C0;stroke-width:1.0;" x1="781" x2="823" y1="673.125" y2="673.125"/><line style="stroke:#1565C0;stroke-width:1.0;" x1="823" x2="823" y1="673.125" y2="686.125"/><line style="stroke:#1565C0;stroke-width:1.0;" x1="782" x2="823" y1="686.125" y2="686.125"/><polygon fill="#1565C0" points="792,682.125,782,686.125,792,690.125,788,686.125" style="stroke:#1565C0;stroke-width:1.0;"/><text fill="#222222" font-family="sans-serif" font-size="14" font-weight="bold" lengthAdjust="spacing" textLength="20" x="788" y="667.8232">13</text><text fill="#222222" font-family="sans-serif" font-size="14" lengthAdjust="spacing" textLength="292" x="812" y="667.8232">initializeTargetLibraryInfoWrapperPassPass</text><polygon fill="#1565C0" points="1129,728.7188,1139,732.7188,1129,736.7188,1133,732.7188" style="stroke:#1565C0;stroke-width:1.0;"/><line style="stroke:#1565C0;stroke-width:1.0;" x1="21" x2="1135" y1="732.7188" y2="732.7188"/><text fill="#222222" font-family="sans-serif" font-size="14" font-weight="bold" lengthAdjust="spacing" textLength="20" x="482.5" y="719.2686">14</text><text fill="#222222" font-family="sans-serif" font-size="14" lengthAdjust="spacing" textLength="23" x="581.5" y="711.1201">run</text><text fill="#222222" font-family="sans-serif" font-size="14" lengthAdjust="spacing" textLength="173" x="506.5" y="727.417">&#36816;&#34892;&#21018;&#21018;&#28155;&#21152;&#30340;&#25152;&#26377;&#30340;Pass</text><polygon fill="#1565C0" points="2011,791.6094,2021,795.6094,2011,799.6094,2015,795.6094" style="stroke:#1565C0;stroke-width:1.0;"/><line style="stroke:#1565C0;stroke-width:1.0;" x1="1141" x2="2017" y1="795.6094" y2="795.6094"/><text fill="#222222" font-family="sans-serif" font-size="14" font-weight="bold" lengthAdjust="spacing" textLength="20" x="1484.5" y="774.0107">15</text><text fill="#222222" font-family="sans-serif" font-size="14" lengthAdjust="spacing" textLength="161" x="1513.5" y="757.7139">runOnMachineFunction</text><text fill="#222222" font-family="sans-serif" font-size="14" lengthAdjust="spacing" textLength="171" x="1508.5" y="774.0107">&#36816;&#34892;Cpu0DAGTODAGISel</text><text fill="#222222" font-family="sans-serif" font-size="14" lengthAdjust="spacing" textLength="33" x="1577.5" y="790.3076">Pass</text><polygon fill="#1565C0" points="1258,838.2031,1248,842.2031,1258,846.2031,1254,842.2031" style="stroke:#1565C0;stroke-width:1.0;"/><line style="stroke:#1565C0;stroke-width:1.0;" x1="1252" x2="2022" y1="842.2031" y2="842.2031"/><text fill="#222222" font-family="sans-serif" font-size="14" font-weight="bold" lengthAdjust="spacing" textLength="20" x="1542.5" y="828.7529">16</text><text fill="#222222" font-family="sans-serif" font-size="14" lengthAdjust="spacing" textLength="161" x="1566.5" y="820.6045">runOnMachineFunction</text><text fill="#222222" font-family="sans-serif" font-size="14" lengthAdjust="spacing" textLength="126" x="1584" y="836.9014">&#23376;&#31867;&#35843;&#29992;&#22522;&#31867;&#30340;&#20989;&#25968;</text><line style="stroke:#1565C0;stroke-width:1.0;" x1="1247" x2="1289" y1="888.7969" y2="888.7969"/><line style="stroke:#1565C0;stroke-width:1.0;" x1="1289" x2="1289" y1="888.7969" y2="901.7969"/><line style="stroke:#1565C0;stroke-width:1.0;" x1="1248" x2="1289" y1="901.7969" y2="901.7969"/><polygon fill="#1565C0" points="1258,897.7969,1248,901.7969,1258,905.7969,1254,901.7969" style="stroke:#1565C0;stroke-width:1.0;"/><text fill="#222222" font-family="sans-serif" font-size="14" font-weight="bold" lengthAdjust="spacing" textLength="20" x="1254" y="875.3467">17</text><text fill="#222222" font-family="sans-serif" font-size="14" lengthAdjust="spacing" textLength="270" x="1278" y="867.1982">SelectionDAGISel::SelectAllBasicBlocks</text><text fill="#222222" font-family="sans-serif" font-size="14" lengthAdjust="spacing" textLength="107" x="1359.5" y="883.4951">&#36941;&#21382;&#25152;&#26377;&#30340;block</text><line style="stroke:#1565C0;stroke-width:1.0;" x1="1247" x2="1289" y1="948.3906" y2="948.3906"/><line style="stroke:#1565C0;stroke-width:1.0;" x1="1289" x2="1289" y1="948.3906" y2="961.3906"/><line style="stroke:#1565C0;stroke-width:1.0;" x1="1248" x2="1289" y1="961.3906" y2="961.3906"/><polygon fill="#1565C0" points="1258,957.3906,1248,961.3906,1258,965.3906,1254,961.3906" style="stroke:#1565C0;stroke-width:1.0;"/><text fill="#222222" font-family="sans-serif" font-size="14" font-weight="bold" lengthAdjust="spacing" textLength="20" x="1254" y="934.9404">18</text><text fill="#222222" font-family="sans-serif" font-size="14" lengthAdjust="spacing" textLength="255" x="1278" y="926.792">SelectionDAGISel::SelectBasicBlocks</text><text fill="#222222" font-family="sans-serif" font-size="14" lengthAdjust="spacing" textLength="135" x="1338" y="943.0889">&#32534;&#35793;&#19968;&#20010;&#22522;&#30784;&#30340;block</text><polygon fill="#FF0000" points="1543,1052.875,1553,1056.875,1543,1060.875,1547,1056.875" style="stroke:#FF0000;stroke-width:1.0;"/><line style="stroke:#FF0000;stroke-width:1.0;stroke-dasharray:2.0,2.0;" x1="1247" x2="1549" y1="1056.875" y2="1056.875"/><text fill="#222222" font-family="sans-serif" font-size="14" font-weight="bold" lengthAdjust="spacing" textLength="20" x="1260.5" y="1018.9795">19</text><text fill="#FF0000" font-family="sans-serif" font-size="14" lengthAdjust="spacing" textLength="30" x="1398" y="986.3857">visit,</text><text fill="#FF0000" font-family="sans-serif" font-size="14" lengthAdjust="spacing" textLength="64" x="1381" y="1002.6826">&#36941;&#21382;basic</text><text fill="#FF0000" font-family="sans-serif" font-size="14" lengthAdjust="spacing" textLength="125" x="1350.5" y="1018.9795">block&#20013;&#30340;&#27599;&#26465;&#25351;&#20196;,</text><text fill="#FF0000" font-family="sans-serif" font-size="14" lengthAdjust="spacing" textLength="253" x="1284.5" y="1035.2764">&#26681;&#25454;&#25351;&#20196;&#30340;Opcode&#23558;IR&#25351;&#20196;&#36716;&#25442;&#20026;DAG</text><text fill="#222222" font-family="sans-serif" font-size="14" lengthAdjust="spacing" textLength="4" x="1537.5" y="1035.2764">,</text><text fill="#FF0000" font-family="sans-serif" font-size="14" lengthAdjust="spacing" textLength="173" x="1326.5" y="1051.5732">SelectionDAGBuilder.cpp</text><!--SRC=[jPPRRnj5583VvrSCwGEDbDeW8I6Y4iaNKbbocYY9uA7XORmxSKOPpsndTvi6X1H4bQQeQOD4YzH2QH0F254QNaf8AFmPxzhy2yvulCbUPjLKIYq_UC_jE-VCdEDzYmc7Xox5bKeLlelKbw5oQDNZH0HXZrSvw_XLHofQyU0HeO05dEA9rkBmvM_nxa_zmwDcxKhytOlew7wqinq_sOiU_pE140a3AS9UXohahpFX4KLwc3Y1L4l19WGW6q3gKPJI-lHwI8L3yUVeRLnJIcuq99SADodrbjOtwpoaMg5ZrALogRAfssoLjfcWQOjEJaMSzQwIeN2D-aBjWsQZEOl0P86eW3dCWzhB4McZNAYcTBjK5UrcfGYkaXx5hPu7JK0vrHBxZE9ttolw518qrUUev7f84jsfbwLjfwptqw9HPZNYqPle2uIeW2FUn9mx27NaJJp1-OtU1F9ECyFBH7LfC4USDMXdHjDkVpnNhZMQ1UBx3IbMMJUZNAASEW6J0kvJ2nwoSMcNE9iBSwKUfOfwo3WS99JbOYXdN9FZXUzeIBQk1aZBizVQajor2bZBCidzX8QWZxZukJIJVIwGHz9f308ZNbRCu_JYv8gus6x3BV6fgZYUDtd6-CNO9ZvnNLqIzPVbHpqMp39EaTqs7x5mqkKH8MV8qgHhTxEdUzhiLBgwlGO0OVDsXc7tVWr60zRTkN6oroRJ-fRm0tDNfHeTRU4Q690znALh5nHrFvr9WzANC05TNeKPnuvU2X-2mqoqypWwFjBMcCiDgfZe3XxTql4lLxNf3B97oXUM7zXIthEzmH_7yPDRG1til83VOywAo9kE6g1Z9VJAscIIb1sNRqBQ2gSkUfvaqXatdsdhygJICKS7yegKpjWd9bZ028TzVAKn9zsGqvPObVeSpYrmNH7Xh2qesI4Tnc6jQy8dYdWULHfqhh1Q3TuUGXxuRmfW9gFDEeeeQoLdsuN9VqbMEerLA5R4yD-zuVxTQESHVEC_ZwEldy9in7Usuk_lZ8S4sVrjOs-RHg3CY_5qpuPYL762JNpc4vyHx_MdCLULXMTcSdZmrU3RNw8VZ-0tL1VTVXa_E43sI6VbvOznUjf8QfpNYS-SEfVEEkpK_xxSZUvjdtIseyLl29tX3lv-E7p-JVzmgt_ugwvyV-jLTBDXJfAml5nODymDvhDWgdIhcFexEZKymlSFd-chzln-_CD-VFTs__ZdAHm__IlU_TqyWNBUSwHBeuFjrgAHfT_1nwIf8igIiLvZoHRx7m00]--></g></svg>